<?xml version="1.0" encoding="utf-8"?>
<!-- Generator: Adobe Illustrator 15.0.0, SVG Export Plug-In . SVG Version: 6.00 Build 0)  -->
<!DOCTYPE svg PUBLIC "-//W3C//DTD SVG 1.1//EN" "http://www.w3.org/Graphics/SVG/1.1/DTD/svg11.dtd">
<svg version="1.1" id="Layer_1" xmlns="http://www.w3.org/2000/svg" xmlns:xlink="http://www.w3.org/1999/xlink" x="0px" y="0px"
	 width="100px" height="100px" viewBox="0 0 100 100" enable-background="new 0 0 100 100" xml:space="preserve">
<g>
	<path d="M52.627,72.899c-1.195,0.007-2.369-0.073-3.521-0.222c2.051,0.467,4.179,0.719,6.366,0.712
		c15.913-0.067,28.758-13.457,28.69-29.909c-0.068-16.412-12.959-29.672-28.818-29.672c-0.04,0-0.078,0-0.116,0
		C40.778,13.87,28.862,24.917,26.841,39.267c3.07-11.254,13.335-19.552,25.568-19.602c14.701-0.061,26.667,11.809,26.728,26.509
		C79.196,60.875,67.327,72.841,52.627,72.899z"/>
	<path d="M51.525,77.778c10.478-0.044,19.881-4.514,26.384-11.599c-5.776,5.502-13.58,8.899-22.187,8.934
		c-17.88,0.074-32.439-14.364-32.513-32.247c-0.073-17.883,14.366-32.438,32.249-32.513c8.838-0.034,16.858,3.477,22.725,9.192
		C71.607,12.212,61.969,7.596,51.236,7.64c-19.72,0.082-35.643,15.85-35.563,35.216C15.754,62.223,31.805,77.856,51.525,77.778z"/>
	<path d="M81.835,21.982c4.326,6.175,6.884,13.683,6.917,21.794C88.84,64.934,71.757,82.157,50.6,82.245
		c-21.158,0.088-38.381-16.997-38.468-38.153c-0.042-10.275,3.972-19.614,10.526-26.52C13.411,25.386,7.553,37.082,7.604,50.136
		c0.097,23.416,19.157,42.318,42.569,42.223c23.414-0.097,42.318-19.157,42.222-42.57C92.351,39.125,88.364,29.406,81.835,21.982z"
		/>
</g>
</svg>
